name rise44.8762peak52.3436fall86.788.mot
datacolumns 19
datarows 32
range 10.04329900000000 10.09496500000000
endheader
time	ground_force1_vx	ground_force1_vy	ground_force1_vz	ground_force1_px	ground_force1_py	ground_force1_pz	ground_force2_vx	ground_force2_vy	ground_force2_vz	ground_force2_px	ground_force2_py	ground_force2_pz	ground_torque1_x	ground_torque1_y	ground_torque1_z	ground_torque2_x	ground_torque2_y	ground_torque2_z	
10.04329900000000	-6.85515300000000	41.39863700000000	-12.46368300000000	0.20954800000000	0.00000000000000	0.08493700000000	-58.96129700000000	774.95800699999995	-57.02433300000000	0.06455500000000	0.00000000000000	-0.09791000000000	0.00000000000000	-6.55577800000000	0.00000000000000	0.00000000000000	-17.22726300000000	0.00000000000000	
10.04496600000000	-7.43525200000000	48.75735400000000	-14.04673200000000	0.21998500000000	0.00000000000000	0.08678100000000	-59.59491400000000	772.43579499999998	-56.69417600000000	0.06370500000000	0.00000000000000	-0.09782500000000	0.00000000000000	-7.57078100000000	0.00000000000000	0.00000000000000	-17.22587900000000	0.00000000000000	
10.04663000000000	-7.86184200000000	56.27163600000000	-15.49581100000000	0.22927900000000	0.00000000000000	0.08842600000000	-60.24079300000000	769.80518300000006	-56.34225100000000	0.06285600000000	0.00000000000000	-0.09773600000000	0.00000000000000	-8.54210000000000	0.00000000000000	0.00000000000000	-17.22743000000000	0.00000000000000	
10.04829000000000	-8.11547200000000	63.85006900000000	-16.77770400000000	0.23762400000000	0.00000000000000	0.08990700000000	-60.89814300000000	767.06302500000004	-55.96838000000000	0.06200900000000	0.00000000000000	-0.09764400000000	0.00000000000000	-9.44720900000000	0.00000000000000	0.00000000000000	-17.23181300000000	0.00000000000000	
10.04996300000000	-8.18488700000000	71.42212700000000	-17.87002700000000	0.24517300000000	0.00000000000000	0.09124900000000	-61.56607200000000	764.20610099999999	-55.57241300000000	0.06116300000000	0.00000000000000	-0.09754800000000	0.00000000000000	-10.26929600000000	0.00000000000000	0.00000000000000	-17.23890200000000	0.00000000000000	
10.05162200000000	-8.06685600000000	78.94055600000000	-18.76142200000000	0.25204500000000	0.00000000000000	0.09247400000000	-62.24359000000000	761.23113000000001	-55.15422300000000	0.06032100000000	0.00000000000000	-0.09744900000000	0.00000000000000	-10.99769600000000	0.00000000000000	0.00000000000000	-17.24855200000000	0.00000000000000	
10.05329300000000	-7.76536000000000	86.38143300000000	-19.45081100000000	0.25833800000000	0.00000000000000	0.09359800000000	-62.92960500000000	758.13477899999998	-54.71370900000000	0.05948200000000	0.00000000000000	-0.09734600000000	0.00000000000000	-11.62774900000000	0.00000000000000	0.00000000000000	-17.26059600000000	0.00000000000000	
10.05495800000000	-7.29034600000000	93.74228700000000	-19.94593800000000	0.26413100000000	0.00000000000000	0.09463400000000	-63.62292800000000	754.91367100000002	-54.25080200000000	0.05864800000000	0.00000000000000	-0.09724000000000	0.00000000000000	-12.16018600000000	0.00000000000000	0.00000000000000	-17.27484400000000	0.00000000000000	
10.05662400000000	-6.65620000000000	101.03877799999999	-20.26145000000000	0.26948800000000	0.00000000000000	0.09559500000000	-64.32227200000000	751.56440199999997	-53.76546100000000	0.05782000000000	0.00000000000000	-0.09713000000000	0.00000000000000	-12.60018200000000	0.00000000000000	0.00000000000000	-17.29108900000000	0.00000000000000	
10.05829100000000	-5.88012400000000	108.30045000000000	-20.41673300000000	0.27446300000000	0.00000000000000	0.09649000000000	-65.02625600000000	748.08354699999995	-53.25767600000000	0.05699800000000	0.00000000000000	-0.09701600000000	0.00000000000000	-12.95620400000000	0.00000000000000	0.00000000000000	-17.30909900000000	0.00000000000000	
10.05995700000000	-4.98057000000000	115.56608900000001	-20.43374900000000	0.27910000000000	0.00000000000000	0.09732500000000	-65.73340399999999	744.46767899999998	-52.72747100000000	0.05618200000000	0.00000000000000	-0.09689800000000	0.00000000000000	-13.23879000000000	0.00000000000000	0.00000000000000	-17.32862600000000	0.00000000000000	
10.06162300000000	-3.97583900000000	122.87910800000000	-20.33503600000000	0.28343700000000	0.00000000000000	0.09810900000000	-66.44215100000000	740.71337600000004	-52.17490600000000	0.05537500000000	0.00000000000000	-0.09677700000000	0.00000000000000	-13.45936900000000	0.00000000000000	0.00000000000000	-17.34940000000000	0.00000000000000	
10.06329300000000	-2.88293900000000	130.28334699999999	-20.14200900000000	0.28750600000000	0.00000000000000	0.09884600000000	-67.15084500000000	736.81724199999996	-51.60007600000000	0.05457700000000	0.00000000000000	-0.09665100000000	0.00000000000000	-13.62922200000000	0.00000000000000	0.00000000000000	-17.37113200000000	0.00000000000000	
10.06496000000000	-1.71673900000000	137.81952899999999	-19.87363900000000	0.29133300000000	0.00000000000000	0.09954200000000	-67.85775000000000	732.77591600000005	-51.00311300000000	0.05378800000000	0.00000000000000	-0.09652200000000	0.00000000000000	-13.75862600000000	0.00000000000000	0.00000000000000	-17.39351400000000	0.00000000000000	
10.06662700000000	-0.48943800000000	145.52254300000001	-19.54554700000000	0.29494100000000	0.00000000000000	0.10020000000000	-68.56105100000001	728.58609200000001	-50.38419000000000	0.05300900000000	0.00000000000000	-0.09638900000000	0.00000000000000	-13.85623600000000	0.00000000000000	0.00000000000000	-17.41622300000000	0.00000000000000	
10.06829200000000	0.78967000000000	153.41960000000000	-19.16952300000000	0.29835000000000	0.00000000000000	0.10082300000000	-69.25885500000000	724.24453300000005	-49.74351900000000	0.05224200000000	0.00000000000000	-0.09625200000000	0.00000000000000	-13.92869800000000	0.00000000000000	0.00000000000000	-17.43891600000000	0.00000000000000	
10.06996400000000	2.11416500000000	161.52926800000000	-18.75340300000000	0.30157700000000	0.00000000000000	0.10141600000000	-69.94920300000000	719.74809200000004	-49.08135400000000	0.05148700000000	0.00000000000000	-0.09611100000000	0.00000000000000	-13.98048600000000	0.00000000000000	0.00000000000000	-17.46123700000000	0.00000000000000	
10.07162300000000	3.48026100000000	169.86127200000001	-18.30128000000000	0.30463600000000	0.00000000000000	0.10198100000000	-70.63006799999999	715.09372399999995	-48.39799100000000	0.05074600000000	0.00000000000000	-0.09596600000000	0.00000000000000	-14.01394300000000	0.00000000000000	0.00000000000000	-17.48281300000000	0.00000000000000	
10.07329700000000	4.88640700000000	178.41695700000000	-17.81395000000000	0.30754100000000	0.00000000000000	0.10251900000000	-71.29936400000000	710.27851299999998	-47.69377000000000	0.05001700000000	0.00000000000000	-0.09581700000000	0.00000000000000	-14.02947600000000	0.00000000000000	0.00000000000000	-17.50325800000000	0.00000000000000	
10.07496100000000	6.33278900000000	187.19024800000000	-17.28952800000000	0.31030100000000	0.00000000000000	0.10303400000000	-71.95495200000001	705.29968399999996	-46.96907600000000	0.04930300000000	0.00000000000000	-0.09566400000000	0.00000000000000	-14.02586600000000	0.00000000000000	0.00000000000000	-17.52217200000000	0.00000000000000	
10.07663800000000	7.82079400000000	196.16893899999999	-16.72415400000000	0.31292700000000	0.00000000000000	0.10352600000000	-72.59464400000000	700.15462800000000	-46.22433800000000	0.04860500000000	0.00000000000000	-0.09550700000000	0.00000000000000	-14.00065300000000	0.00000000000000	0.00000000000000	-17.53914700000000	0.00000000000000	
10.07829000000000	9.35247200000000	205.33616100000000	-16.11271900000000	0.31542700000000	0.00000000000000	0.10399800000000	-73.21621300000000	694.84091699999999	-45.46002800000000	0.04792200000000	0.00000000000000	-0.09534500000000	0.00000000000000	-13.95054500000000	0.00000000000000	0.00000000000000	-17.55376200000000	0.00000000000000	
10.07995700000000	10.93005300000000	214.67189400000001	-15.44955500000000	0.31780800000000	0.00000000000000	0.10445100000000	-73.81739600000000	689.35633199999995	-44.67666700000000	0.04725500000000	0.00000000000000	-0.09518000000000	0.00000000000000	-13.87182500000000	0.00000000000000	0.00000000000000	-17.56558900000000	0.00000000000000	
10.08163000000000	12.55552500000000	224.15438700000001	-14.72904700000000	0.32007600000000	0.00000000000000	0.10488600000000	-74.39590699999999	683.69887100000005	-43.87481900000000	0.04660600000000	0.00000000000000	-0.09501000000000	0.00000000000000	-13.76071600000000	0.00000000000000	0.00000000000000	-17.57419100000000	0.00000000000000	
10.08329900000000	14.23031000000000	233.76141600000000	-13.94613100000000	0.32223600000000	0.00000000000000	0.10530500000000	-74.94943600000001	677.86677899999995	-43.05509400000000	0.04597400000000	0.00000000000000	-0.09483600000000	0.00000000000000	-13.61369400000000	0.00000000000000	0.00000000000000	-17.57912800000000	0.00000000000000	
10.08495800000000	15.95503100000000	243.47131500000000	-13.09667000000000	0.32429400000000	0.00000000000000	0.10570800000000	-75.47566399999999	671.85855600000002	-42.21814600000000	0.04536000000000	0.00000000000000	-0.09465800000000	0.00000000000000	-13.42772800000000	0.00000000000000	0.00000000000000	-17.57995400000000	0.00000000000000	
10.08662600000000	17.72938100000000	253.26374500000000	-12.17770000000000	0.32625300000000	0.00000000000000	0.10609600000000	-75.97226700000000	665.67297799999994	-41.36467600000000	0.04476500000000	0.00000000000000	-0.09447600000000	0.00000000000000	-13.20045100000000	0.00000000000000	0.00000000000000	-17.57622200000000	0.00000000000000	
10.08829200000000	19.55207000000000	263.12021399999998	-11.18755300000000	0.32811700000000	0.00000000000000	0.10647100000000	-76.43692600000000	659.30911100000003	-40.49542700000000	0.04418800000000	0.00000000000000	-0.09428900000000	0.00000000000000	-12.93025100000000	0.00000000000000	0.00000000000000	-17.56748400000000	0.00000000000000	
10.08995800000000	21.42086000000000	273.02433300000001	-10.12587600000000	0.32989000000000	0.00000000000000	0.10683200000000	-76.86733300000000	652.76631799999996	-39.61118600000000	0.04363100000000	0.00000000000000	-0.09409900000000	0.00000000000000	-12.61630500000000	0.00000000000000	0.00000000000000	-17.55329500000000	0.00000000000000	
10.09163100000000	23.33264400000000	282.96188100000001	-8.99355600000000	0.33157200000000	0.00000000000000	0.10718100000000	-77.26120100000000	646.04427299999998	-38.71278400000000	0.04309300000000	0.00000000000000	-0.09390400000000	0.00000000000000	-12.25854900000000	0.00000000000000	0.00000000000000	-17.53321000000000	0.00000000000000	
10.09329000000000	25.28357500000000	292.92067700000001	-7.79258900000000	0.33316800000000	0.00000000000000	0.10751800000000	-77.61627100000000	639.14296500000000	-37.80109200000000	0.04257400000000	0.00000000000000	-0.09370500000000	0.00000000000000	-11.85761300000000	0.00000000000000	0.00000000000000	-17.50679400000000	0.00000000000000	
10.09496500000000	27.26921900000000	302.89033599999999	-6.52589700000000	0.33467800000000	0.00000000000000	0.10784400000000	-77.93032500000000	632.06270300000006	-36.87702400000000	0.04207500000000	0.00000000000000	-0.09350300000000	0.00000000000000	-11.41472500000000	0.00000000000000	0.00000000000000	-17.47361600000000	0.00000000000000	
